/usr/bin/ffmpeg -hide_banner -y -y -r 10 -start_number 0 -start_number_range 1 -i /home/maruseu/Documents/maruseu-webpage/res/img/frame%04d.png -f webp -lossless 0 -compression_level 4 -q:v 75 -preset default -loop 0 /home/maruseu/Documents/maruseu-webpage/res/img/nc.webp
=====================================================
Input #0, image2, from '/home/maruseu/Documents/maruseu-webpage/res/img/frame%04d.png':
  Duration: 00:00:00.36, start: 0.000000, bitrate: N/A
  Stream #0:0: Video: png, rgba(pc, gbr/unknown/unknown), 651x647 [SAR 2834:2834 DAR 651:647], 25 fps, 25 tbr, 25 tbn
Stream mapping:
  Stream #0:0 -> #0:0 (png (native) -> webp (libwebp_anim))
Press [q] to stop, [?] for help
Output #0, webp, to '/home/maruseu/Documents/maruseu-webpage/res/img/nc.webp':
  Metadata:
    encoder         : Lavf61.1.100
  Stream #0:0: Video: webp, bgra(pc, gbr/unknown/unknown, progressive), 651x647 [SAR 1:1 DAR 651:647], q=2-31, 200 kb/s, 10 fps, 1k tbn
      Metadata:
        encoder         : Lavc61.3.100 libwebp_anim
[libwebp_anim @ 0x56c164dbc1c0] Using libwebp for RGB-to-YUV conversion. You may want to consider passing in YUV instead for lossy encoding.
frame=    0 fps=0.0 q=0.0 size=       0KiB time=N/A bitrate=N/A speed=N/A    [out#0/webp @ 0x56c164dbd000] video:448KiB audio:0KiB subtitle:0KiB other streams:0KiB global headers:0KiB muxing overhead: 0.000000%
frame=    1 fps=0.0 q=-0.0 Lsize=     448KiB time=00:00:00.90 bitrate=4077.0kbits/s speed=1.52x    
